<?xml version="1.0" standalone="no"?>
<!DOCTYPE svg PUBLIC "-//W3C//DTD SVG 20010904//EN"
 "http://www.w3.org/TR/2001/REC-SVG-20010904/DTD/svg10.dtd">
<svg version="1.0" xmlns="http://www.w3.org/2000/svg"
 width="218.000000pt" height="218.000000pt" viewBox="0 0 218.000000 218.000000"
 preserveAspectRatio="xMidYMid meet">
<metadata>
Created by potrace 1.11, written by Peter Selinger 2001-2013
</metadata>
<g transform="translate(0.000000,218.000000) scale(0.100000,-0.100000)"
fill="#000000" stroke="none">
<path d="M0 1085 l0 -625 1090 0 1090 0 0 625 0 625 -1090 0 -1090 0 0 -625z
m2062 368 c-6 -91 -16 -171 -21 -176 -6 -6 -32 14 -73 57 -55 59 -120 107
-145 106 -4 -1 13 -12 39 -25 54 -29 127 -110 111 -126 -7 -7 -25 5 -58 40
-30 32 -66 57 -101 72 -55 22 -68 46 -23 42 18 -1 14 3 -16 17 -22 10 -40 24
-40 30 0 17 318 151 329 140 6 -6 5 -74 -2 -177z m-179 -107 c15 -11 27 -26
27 -33 0 -19 -14 -16 -36 8 -10 12 -31 28 -47 35 -15 8 -25 19 -22 24 7 11 32
0 78 -34z m-1416 -30 c126 -34 180 -110 121 -173 -31 -33 -69 -29 -118 12 -45
37 -91 51 -146 42 -43 -7 -64 -23 -64 -48 0 -31 26 -46 127 -69 54 -12 116
-30 138 -40 155 -68 154 -250 -1 -330 -99 -51 -292 -35 -383 31 -68 51 -76
136 -15 159 36 14 57 6 114 -45 30 -27 64 -47 85 -51 43 -8 101 0 121 17 17
14 18 63 2 77 -7 5 -67 24 -132 41 -169 44 -207 71 -227 160 -20 91 33 178
131 211 66 23 173 26 247 6z m663 -15 c99 -46 170 -150 170 -248 0 -84 3 -83
-251 -83 l-219 0 6 -27 c18 -75 54 -110 127 -124 55 -10 102 3 163 46 27 19
58 35 69 35 27 0 61 -25 68 -49 4 -16 -10 -27 -82 -62 -47 -23 -128 -57 -180
-75 -87 -30 -97 -31 -136 -20 -86 26 -159 98 -190 186 -8 23 -15 75 -15 114 0
163 69 270 205 319 68 24 201 19 265 -12z m623 15 c34 -10 49 -11 58 -2 26 24
-32 -52 -91 -119 -124 -140 -363 -333 -380 -305 -14 23 -20 115 -10 174 26
164 145 265 311 266 36 0 86 -6 112 -14z m154 -108 c18 -24 39 -71 48 -103 42
-163 -12 -319 -135 -389 -50 -28 -64 -31 -160 -34 -91 -2 -112 1 -160 20 l-55
23 -50 -27 c-50 -27 -278 -120 -325 -132 -14 -4 23 19 81 51 154 84 170 98 80
68 -105 -35 -109 -30 -15 14 133 63 248 146 388 280 60 58 74 68 60 43 -11
-19 -43 -63 -71 -98 -29 -35 -53 -66 -53 -69 0 -3 15 -14 33 -25 66 -40 157
-16 194 52 25 45 25 199 1 243 -16 31 -16 32 24 94 38 60 40 62 61 48 12 -8
36 -34 54 -59z m-530 -603 c8 -22 -4 -30 -21 -16 -19 16 -36 6 -36 -20 0 -25
25 -35 45 -19 12 10 15 9 15 -3 0 -9 -9 -21 -21 -27 -47 -26 -92 46 -53 84 20
20 63 21 71 1z m109 -13 c26 -53 -22 -100 -71 -68 -29 19 -33 56 -9 81 23 22
66 15 80 -13z m175 6 c13 -24 8 -80 -8 -85 -8 -3 -13 11 -15 39 -4 56 -31 60
-38 5 -6 -48 -23 -49 -30 -2 -3 20 -9 36 -15 36 -5 0 -12 -16 -15 -36 -7 -53
-25 -47 -28 10 l-3 51 71 1 c60 1 72 -2 81 -19z m153 16 c11 -4 16 -19 16 -49
0 -41 -2 -43 -32 -48 -68 -10 -93 39 -30 57 40 11 43 30 2 21 -18 -4 -30 -2
-30 3 0 18 44 28 74 16z m64 -37 c5 -61 42 -43 42 20 0 40 25 21 28 -21 4 -50
-4 -72 -21 -57 -10 7 -17 7 -24 0 -8 -8 -17 -8 -32 0 -17 9 -21 21 -21 57 0
56 23 56 28 1z m-603 -36 c7 -12 -12 -24 -25 -16 -11 7 -4 25 10 25 5 0 11 -4
15 -9z m440 0 c7 -12 -12 -24 -25 -16 -11 7 -4 25 10 25 5 0 11 -4 15 -9z"/>
<path d="M935 1195 c-22 -8 -41 -15 -42 -15 -9 0 -53 -78 -53 -92 0 -16 13
-18 145 -18 162 0 165 2 125 67 -38 62 -104 85 -175 58z"/>
<path d="M1580 1182 c-32 -18 -79 -86 -67 -99 7 -7 31 8 111 71 l59 46 -34 0
c-19 0 -50 -8 -69 -18z"/>
<path d="M1427 593 c-13 -12 -7 -44 9 -50 21 -8 35 16 23 39 -10 19 -21 23
-32 11z"/>
<path d="M1767 554 c-4 -4 -4 -10 -1 -15 6 -10 34 0 34 12 0 10 -24 12 -33 3z"/>
</g>
</svg>
